# xmcd CD database file
#
# Track frame offsets:
#	150
#	23550
#	47700
#
# Disc length: 944 seconds
#
# Revision: 0
# Processed by: cddbd v1.5.1PL0 Copyright (c) Steve Scherf et al.
# Submitted via: CDex 1.51
#
DISCID=1903ae03
DTITLE=岡本真夜 - 宝物
DYEAR=1999
DGENRE=J-POP
TTITLE0=宝物
TTITLE1=宝物 Spiritual Track
TTITLE2=宝物 Instrumental
EXTD=YEAR: 1999
EXTT0=
EXTT1=
EXTT2=
PLAYORDER=
